<svg xmlns="http://www.w3.org/2000/svg" width="220" height="189" viewBox="0 0 220 189">
  <defs>
    <style>
      .cls-2 {
        fill: #0081a7;
        fill-rule: evenodd;
      }
    </style>
  </defs>
  <path id="Color_Fill_1" data-name="Color Fill 1" class="cls-2" d="M78,31h2l-1,2-3,1Zm97,1c-0.5,2.09-2.713,5.495-4,7l-2,1v2l-3,2v2l-3,2c-2.171,3.019-1.139,4.439-6,5,0.657-3.548,2.57-4.546,4-7V44l2-1q0.5-2,1-4l2-1V36l2-1,1-3h6Zm9,1,6,1v1h-1c-2.794,5.1-10.771,10.793-15,15-1.961,1.95-3.226,5.781-6,4-2.01-.574-0.865.12-2-1h1ZM80,82h2c1.2,4.344,3.2,3.423,5,6v2l2,1,1,6h1l-1,7-2,1v3h1v-2c2.51-1.417,2.866-2.05,3-6,0.946-1.076,1.914-6.473,1-9H92V89H91V87H90c-1.325-2.494-6.128-13.046-5-17h1V66h1c1.262-6,6.317-7.484,9-12h1v1c4.526,2.551,13.14,13.245,10,23h-1q-0.5,3-1,6h-1q-0.5,2-1,4h-1v2l-2,1v3H99l1,6,7,1v-1h4l1-2h3l1-2,6-2,1-2h2V91h2V90h2V89h2V88h2V87h2V86h2V85a26.464,26.464,0,0,1,11-3l11,10v2h1v2h1v2h1c1.536,3.916.2,6.883,0,11-2.443,1.539-.621,1.217-2,3l-2,1v1c-1.6,1.142-2.3,0-4,2-7.735.144-13.666-.234-19-2h-4c-2.352-.844-4.978-2.364-8-3q-0.5-1.5-1-3l3-1v-1h2q0.5-1,1-2h3v-1h2v-1c1.116-.234,6.859,2.65,8,3,5.69,1.745,11.93-.072,17-1,0.44-4.442.754-4.795,0-9-2.663-1.412-4.22-2.03-9-2v1h-4v1h-2v1h-3l-1,2h-3l-1,2h-3q-0.5,1-1,2h-3q-0.5,1-1,2l-4,1-2,3h-3q-0.5,1-1,2c-2.967,1.922-7.9,4.5-12,5l-2-3h-1v-2l-2-1-1-4H98v-4H97c-2.645-8.943,9.573-20.556,4-27-0.744-3.175-2.613-4.513-4-7H96v1c-4.732,2.639-5.182,7.386-5,15,3.506,3.008,6.393,14.935,4,21-3.45,8.743-8.893,14-15,20l-2,3H76l-1,2H74l-1,2H71v1a7.744,7.744,0,0,1-4,2l3-14h2c4.238-7.192,9.87-6.461,10-19H81l-1-5H79V94l-5-4V88l-4-3-3-4c-5.984-5.986-11.818-10-12-22h1V55h1V53h1V51l2-1V48h1c1.433-1.755,2.292-2.405,3-5h2V41h1l1-2h2l4-5h2v1c-5.69,3.228-8.891,9.051-12,15H63v2H62v7c2.345,2.04,4.046,7.278,6,10l2,1C72.6,72.746,79.031,78.436,80,82Zm73-47,7-1v1c-4.53,4.17-5.645,16.286-12,18-0.844,1.135.127,0.145-1,1V51h1q0.5-2.5,1-5h1V41l2-1Q152.5,37.5,153,35Zm50,8a8.033,8.033,0,0,0-4,2v1l-4,1-2,3h-2v1l-3,1-1,2h-2l-2,3h-2l-2,3-3,1V60a3.983,3.983,0,0,1-2-2l9-7,2-3h2l4-5h2c2.579-1.858,1.674-3.809,6-5C200.973,41,201.825,38.941,203,43ZM140,56l-4,1c-0.12-4.849,1.29-15.417,4-17l5-1v1C143.519,41.506,140.3,52.926,140,56Zm-10-9q-0.5,7-1,14c-1.8.944-1.574,1.385-4,2-0.22-3.6-2.036-10.61-1-12C125.361,48.61,126.852,47.651,130,47Zm82,9-4,1v1h-3l-1,2-9,3v1h-3l-1,2h-3l-1,2h-3v1c-1.416.876-1.733,0.676-4,1V65c3.543-.76,4.5-2.611,7-4l4-1,1-2h2l1-2,6-2,1-2h2V51h2V50l3-1v1C211.212,51.378,211.7,52.622,212,56Zm-96,1c0.694,3.428,3.312,9.115,2,11l-2,3h-1a18.358,18.358,0,0,0-5-8V61C112.465,59.561,112.788,57.862,116,57Zm99,9q0.5,4,1,8h-1v1l-34,7V81h-1l1-3,3-1V76l5-1V74h3V73h2V72h4V71h2V70h3V69h2V68h4V67ZM69,88a8.262,8.262,0,0,0,2,4h1v2l2,1,1,6h1v5H75l-1,5-7,5c-7.732.15-13.671-.234-19-2H44v-1l-6-1v-1l-3-1v-2c3.09-.72,4.627-2.747,7-4h2v-1h2v-1l4,1v1h4v1h5v1h6v-1c5.2-1.686,7.188.447,8-6H72V96H71c-2.174-2.7-2.859-3.039-8-3v1H58v1H56v1H53l-1,2H49l-1,2H45l-1,2-3,1v1l-6,2-1,2-6,2-1,2-9,3c-0.664-1.233-1.594-1.389-2-2v-2l-2-1v-2H13c-1.768-3.245-2.759-8.409-3-13,1.135-.844.145,0.127,1-1h1c0.233,3.769.758,5.14,4,6v1c1.678,0.925,9.078-1.522,10-2V98h2V97h2V96h2l1-2h2l1-2,6-2c5.619-3.01,11-7.334,19-8,1.324,2.129,4,3.549,6,5v1h2Zm145-1c-0.165,3.023-1.382,8.445-3,10-2.76,2.5-14.2,1.1-19,1-2.167-1.987-10.054-1.1-14-1V93l2-1c3.375-3.288,6.94-.575,12-2V89Zm-42,19c11.353,0.369,21.311,5.513,33,6-1.085,5.206-4.782,6.825-6,12l-11-4v-1h-2v-1h-4v-1l-6-2v-1h-3v-1l-3-1Q171,109,172,106Zm-6,16v2l3,1v1h2q0.5,1,1,2h2q0.5,1,1,2h2q0.5,1,1,2h2q0.5,1,1,2h2q0.5,1,1,2h2c0.6,0.405.8,1.332,2,2-1.439,2.465-3.138,2.788-4,6h-2v2h-2v2c-3.376-.813-9.155-6.64-10-10h-2v-2c-3.992-2.267-7.8-6.926-10-11a9.877,9.877,0,0,0,4-4c2.01,0.574.865-.12,2,1h2Zm-78,7v3l-4,3v1H82l-7,8c-2.042,1.981-4.458,2.413-6,5H68v-2H67v-4c1.247-.675,1.364-1.571,2-2h2l2-3h2l2-3h2l1-2,3-1v-1C84.766,129.611,84.992,129.418,88,129Zm66,39-10-30c2.465-1.439,2.788-3.138,6-4v1c1.693,1.427,3.889,5.043,5,7v2l2,1v2l2,1q1,3,2,6l2,1v2h1c0.921,1.364.7,1.76,1,4C161.242,163.132,158.686,166.784,154,168ZM88,138h3v3H90c-0.608,2.6-1.594,3.28-3,5H86v2l-4,3v2l-5,4v2l-4,3v2H72v-1c-1.759-1.5-1.9-2.7-2-6,2.84-1.594,13.156-11.779,14-15C86.927,141.316,87.275,140.887,88,138Zm7,6c1.031,0.557,3.786,1.838,3,4H97L82,175H80c-1.212-2.128-2.252-2.177-3-5,2.786-2.358,3.895-5.892,6-9l2-1v-2l3-2v-2l2-1Zm35,36V145l5-1c0.844,1.135-.127.145,1,1,0.029,8.569,1.987,17.051,4,24,0.793,2.737.1,4.846,1,7h-1C138.265,177.972,133.1,179.413,130,180Zm-22-31L97,183c-3.193-.549-5.489-1.848-8-3,2.129-5.219,5.5-10.24,8-15v-2h1v-3l2-1v-3h1v-2h1C104.182,150,101.668,149.3,108,149Zm8,0h5l-3,20c-1.332,4.615.739,11.016-2,14-1.593,1.485-5.892,1.092-9,1v-1h1q1-6,2-12A189.08,189.08,0,0,0,116,149Z"/>
</svg>
